<?xml version="1.0" encoding="UTF-8"?>
<svg width="700pt" height="700pt" version="1.1" viewBox="0 0 700 700" xmlns="http://www.w3.org/2000/svg" xmlns:xlink="http://www.w3.org/1999/xlink">
 <defs>
  <symbol id="u" overflow="visible">
   <path d="m18.766-1.125c-0.96875 0.5-1.9805 0.875-3.0312 1.125-1.043 0.25781-2.1367 0.39062-3.2812 0.39062-3.3984 0-6.0898-0.94531-8.0781-2.8438-1.9922-1.9062-2.9844-4.4844-2.9844-7.7344 0-3.2578 0.99219-5.8359 2.9844-7.7344 1.9883-1.9062 4.6797-2.8594 8.0781-2.8594 1.1445 0 2.2383 0.13281 3.2812 0.39062 1.0508 0.25 2.0625 0.625 3.0312 1.125v4.2188c-0.98047-0.65625-1.9453-1.1406-2.8906-1.4531-0.94922-0.3125-1.9492-0.46875-3-0.46875-1.875 0-3.3516 0.60547-4.4219 1.8125-1.0742 1.1992-1.6094 2.8555-1.6094 4.9688 0 2.1055 0.53516 3.7617 1.6094 4.9688 1.0703 1.1992 2.5469 1.7969 4.4219 1.7969 1.0508 0 2.0508-0.14844 3-0.45312 0.94531-0.3125 1.9102-0.80078 2.8906-1.4688z"/>
  </symbol>
  <symbol id="c" overflow="visible">
   <path d="m13.734-11.141c-0.4375-0.19531-0.87109-0.34375-1.2969-0.4375-0.41797-0.10156-0.83984-0.15625-1.2656-0.15625-1.2617 0-2.2305 0.40625-2.9062 1.2188-0.67969 0.80469-1.0156 1.9531-1.0156 3.4531v7.0625h-4.8906v-15.312h4.8906v2.5156c0.625-1 1.3438-1.7266 2.1562-2.1875 0.82031-0.46875 1.8008-0.70312 2.9375-0.70312 0.16406 0 0.34375 0.011719 0.53125 0.03125 0.19531 0.011719 0.47656 0.039062 0.84375 0.078125z"/>
  </symbol>
  <symbol id="a" overflow="visible">
   <path d="m17.641-7.7031v1.4062h-11.453c0.125 1.1484 0.53906 2.0078 1.25 2.5781 0.70703 0.57422 1.7031 0.85938 2.9844 0.85938 1.0312 0 2.082-0.14844 3.1562-0.45312 1.082-0.3125 2.1914-0.77344 3.3281-1.3906v3.7656c-1.1562 0.4375-2.3125 0.76562-3.4688 0.98438-1.1562 0.22656-2.3125 0.34375-3.4688 0.34375-2.7734 0-4.9297-0.70312-6.4688-2.1094-1.5312-1.4062-2.2969-3.3789-2.2969-5.9219 0-2.5 0.75391-4.4609 2.2656-5.8906 1.5078-1.4375 3.582-2.1562 6.2188-2.1562 2.4062 0 4.332 0.73047 5.7812 2.1875 1.4453 1.4492 2.1719 3.3828 2.1719 5.7969zm-5.0312-1.625c0-0.92578-0.27344-1.6719-0.8125-2.2344-0.54297-0.57031-1.25-0.85938-2.125-0.85938-0.94922 0-1.7188 0.26562-2.3125 0.79688s-0.96484 1.2969-1.1094 2.2969z"/>
  </symbol>
  <symbol id="e" overflow="visible">
   <path d="m9.2188-6.8906c-1.0234 0-1.793 0.17188-2.3125 0.51562-0.51172 0.34375-0.76562 0.85547-0.76562 1.5312 0 0.625 0.20703 1.1172 0.625 1.4688 0.41406 0.34375 0.98828 0.51562 1.7188 0.51562 0.92578 0 1.7031-0.32812 2.3281-0.98438 0.63281-0.66406 0.95312-1.4922 0.95312-2.4844v-0.5625zm7.4688-1.8438v8.7344h-4.9219v-2.2656c-0.65625 0.92969-1.3984 1.6055-2.2188 2.0312-0.82422 0.41406-1.8242 0.625-3 0.625-1.5859 0-2.8711-0.45703-3.8594-1.375-0.99219-0.92578-1.4844-2.1289-1.4844-3.6094 0-1.7891 0.61328-3.1016 1.8438-3.9375 1.2383-0.84375 3.1797-1.2656 5.8281-1.2656h2.8906v-0.39062c0-0.76953-0.30859-1.332-0.92188-1.6875-0.61719-0.36328-1.5703-0.54688-2.8594-0.54688-1.0547 0-2.0312 0.10547-2.9375 0.3125-0.89844 0.21094-1.7305 0.52344-2.5 0.9375v-3.7344c1.0391-0.25 2.0859-0.44141 3.1406-0.57812 1.0625-0.13281 2.125-0.20312 3.1875-0.20312 2.7578 0 4.75 0.54688 5.9688 1.6406 1.2266 1.0859 1.8438 2.8555 1.8438 5.3125z"/>
  </symbol>
  <symbol id="b" overflow="visible">
   <path d="m7.7031-19.656v4.3438h5.0469v3.5h-5.0469v6.5c0 0.71094 0.14062 1.1875 0.42188 1.4375s0.83594 0.375 1.6719 0.375h2.5156v3.5h-4.1875c-1.9375 0-3.3125-0.39844-4.125-1.2031-0.80469-0.8125-1.2031-2.1797-1.2031-4.1094v-6.5h-2.4219v-3.5h2.4219v-4.3438z"/>
  </symbol>
  <symbol id="i" overflow="visible">
   <path d="m12.766-13.078v-8.2031h4.9219v21.281h-4.9219v-2.2188c-0.66797 0.90625-1.4062 1.5703-2.2188 1.9844s-1.7578 0.625-2.8281 0.625c-1.8867 0-3.4336-0.75-4.6406-2.25-1.2109-1.5-1.8125-3.4258-1.8125-5.7812 0-2.3633 0.60156-4.2969 1.8125-5.7969 1.207-1.5 2.7539-2.25 4.6406-2.25 1.0625 0 2 0.21484 2.8125 0.64062 0.82031 0.42969 1.5664 1.0859 2.2344 1.9688zm-3.2188 9.9219c1.0391 0 1.8359-0.37891 2.3906-1.1406 0.55078-0.76953 0.82812-1.8828 0.82812-3.3438 0-1.457-0.27734-2.5664-0.82812-3.3281-0.55469-0.76953-1.3516-1.1562-2.3906-1.1562-1.043 0-1.8398 0.38672-2.3906 1.1562-0.55469 0.76172-0.82812 1.8711-0.82812 3.3281 0 1.4609 0.27344 2.5742 0.82812 3.3438 0.55078 0.76172 1.3477 1.1406 2.3906 1.1406z"/>
  </symbol>
  <symbol id="h" overflow="visible">
   <path d="m10.5-3.1562c1.0508 0 1.8516-0.37891 2.4062-1.1406 0.55078-0.76953 0.82812-1.8828 0.82812-3.3438 0-1.457-0.27734-2.5664-0.82812-3.3281-0.55469-0.76953-1.3555-1.1562-2.4062-1.1562-1.0547 0-1.8594 0.38672-2.4219 1.1562-0.55469 0.77344-0.82812 1.8828-0.82812 3.3281 0 1.4492 0.27344 2.5586 0.82812 3.3281 0.5625 0.77344 1.3672 1.1562 2.4219 1.1562zm-3.25-9.9219c0.67578-0.88281 1.4219-1.5391 2.2344-1.9688 0.82031-0.42578 1.7656-0.64062 2.8281-0.64062 1.8945 0 3.4453 0.75 4.6562 2.25 1.207 1.5 1.8125 3.4336 1.8125 5.7969 0 2.3555-0.60547 4.2812-1.8125 5.7812-1.2109 1.5-2.7617 2.25-4.6562 2.25-1.0625 0-2.0078-0.21094-2.8281-0.625-0.8125-0.42578-1.5586-1.0859-2.2344-1.9844v2.2188h-4.8906v-21.281h4.8906z"/>
  </symbol>
  <symbol id="g" overflow="visible">
   <path d="m0.34375-15.312h4.8906l4.125 10.391 3.5-10.391h4.8906l-6.4375 16.766c-0.64844 1.6953-1.4023 2.8828-2.2656 3.5625-0.86719 0.6875-2 1.0312-3.4062 1.0312h-2.8438v-3.2188h1.5312c0.83203 0 1.4375-0.13672 1.8125-0.40625 0.38281-0.26172 0.67969-0.73047 0.89062-1.4062l0.14062-0.42188z"/>
  </symbol>
  <symbol id="f" overflow="visible">
   <path d="m-0.28125-20.406h5.7656l4.6406 7.2656 4.6562-7.2656h5.7656l-7.7812 11.812v8.5938h-5.2656v-8.5938z"/>
  </symbol>
  <symbol id="t" overflow="visible">
   <path d="m14.312-14.828v3.7188c-1.043-0.4375-2.0547-0.76562-3.0312-0.98438-0.98047-0.21875-1.9023-0.32812-2.7656-0.32812-0.92969 0-1.6211 0.11719-2.0781 0.34375-0.44922 0.23047-0.67188 0.58984-0.67188 1.0781 0 0.38672 0.17188 0.68359 0.51562 0.89062 0.34375 0.21094 0.95703 0.36719 1.8438 0.46875l0.85938 0.125c2.5078 0.32422 4.1953 0.85156 5.0625 1.5781 0.86328 0.73047 1.2969 1.8711 1.2969 3.4219 0 1.6367-0.60547 2.8672-1.8125 3.6875-1.1992 0.8125-2.9922 1.2188-5.375 1.2188-1.0234 0-2.0742-0.078125-3.1562-0.23438-1.0742-0.15625-2.1797-0.39453-3.3125-0.71875v-3.7188c0.96875 0.48047 1.9609 0.83984 2.9844 1.0781 1.0312 0.23047 2.0781 0.34375 3.1406 0.34375 0.95703 0 1.6758-0.12891 2.1562-0.39062 0.47656-0.26953 0.71875-0.66406 0.71875-1.1875 0-0.4375-0.16797-0.75781-0.5-0.96875-0.33594-0.21875-0.99609-0.38281-1.9844-0.5l-0.85938-0.10938c-2.1797-0.26953-3.7031-0.77344-4.5781-1.5156-0.875-0.73828-1.3125-1.8594-1.3125-3.3594 0-1.625 0.55078-2.8281 1.6562-3.6094 1.1133-0.78906 2.8203-1.1875 5.125-1.1875 0.89453 0 1.8359 0.074219 2.8281 0.21875 1 0.13672 2.082 0.35156 3.25 0.64062z"/>
  </symbol>
  <symbol id="s" overflow="visible">
   <path d="m2.3594-21.281h4.8906v11.594l5.625-5.625h5.6875l-7.4688 7.0312 8.0625 8.2812h-5.9375l-5.9688-6.3906v6.3906h-4.8906z"/>
  </symbol>
  <symbol id="r" overflow="visible">
   <path d="m12.422-21.281v3.2188h-2.7031c-0.6875 0-1.1719 0.125-1.4531 0.375-0.27344 0.25-0.40625 0.6875-0.40625 1.3125v1.0625h4.1875v3.5h-4.1875v11.812h-4.8906v-11.812h-2.4375v-3.5h2.4375v-1.0625c0-1.6641 0.46094-2.8984 1.3906-3.7031 0.92578-0.80078 2.3672-1.2031 4.3281-1.2031z"/>
  </symbol>
  <symbol id="d" overflow="visible">
   <path d="m9.6406-12.188c-1.0859 0-1.9141 0.39062-2.4844 1.1719-0.57422 0.78125-0.85938 1.9062-0.85938 3.375s0.28516 2.5938 0.85938 3.375c0.57031 0.77344 1.3984 1.1562 2.4844 1.1562 1.0625 0 1.875-0.38281 2.4375-1.1562 0.57031-0.78125 0.85938-1.9062 0.85938-3.375s-0.28906-2.5938-0.85938-3.375c-0.5625-0.78125-1.375-1.1719-2.4375-1.1719zm0-3.5c2.6328 0 4.6914 0.71484 6.1719 2.1406 1.4766 1.418 2.2188 3.3867 2.2188 5.9062 0 2.5117-0.74219 4.4805-2.2188 5.9062-1.4805 1.418-3.5391 2.125-6.1719 2.125-2.6484 0-4.7148-0.70703-6.2031-2.125-1.4922-1.4258-2.2344-3.3945-2.2344-5.9062 0-2.5195 0.74219-4.4883 2.2344-5.9062 1.4883-1.4258 3.5547-2.1406 6.2031-2.1406z"/>
  </symbol>
  <symbol id="q" overflow="visible">
   <path d="m16.547-12.766c0.61328-0.94531 1.3477-1.6719 2.2031-2.1719 0.85156-0.5 1.7891-0.75 2.8125-0.75 1.7578 0 3.0977 0.54688 4.0156 1.6406 0.92578 1.0859 1.3906 2.6562 1.3906 4.7188v9.3281h-4.9219v-7.9844-0.35938c0.007813-0.13281 0.015625-0.32031 0.015625-0.5625 0-1.082-0.16406-1.8633-0.48438-2.3438-0.3125-0.48828-0.82422-0.73438-1.5312-0.73438-0.92969 0-1.6484 0.38672-2.1562 1.1562-0.51172 0.76172-0.77344 1.8672-0.78125 3.3125v7.5156h-4.9219v-7.9844c0-1.6953-0.14844-2.7852-0.4375-3.2656-0.29297-0.48828-0.8125-0.73438-1.5625-0.73438-0.9375 0-1.6641 0.38672-2.1719 1.1562-0.51172 0.76172-0.76562 1.8594-0.76562 3.2969v7.5312h-4.9219v-15.312h4.9219v2.2344c0.60156-0.86328 1.2891-1.5156 2.0625-1.9531 0.78125-0.4375 1.6406-0.65625 2.5781-0.65625 1.0625 0 2 0.25781 2.8125 0.76562 0.8125 0.51172 1.4258 1.2305 1.8438 2.1562z"/>
  </symbol>
  <symbol id="p" overflow="visible">
   <path d="m17.75-9.3281v9.3281h-4.9219v-7.1094c0-1.3438-0.03125-2.2656-0.09375-2.7656s-0.16797-0.86719-0.3125-1.1094c-0.1875-0.3125-0.44922-0.55469-0.78125-0.73438-0.32422-0.17578-0.69531-0.26562-1.1094-0.26562-1.0234 0-1.8242 0.39844-2.4062 1.1875-0.58594 0.78125-0.875 1.8711-0.875 3.2656v7.5312h-4.8906v-21.281h4.8906v8.2031c0.73828-0.88281 1.5195-1.5391 2.3438-1.9688 0.83203-0.42578 1.75-0.64062 2.75-0.64062 1.7695 0 3.1133 0.54688 4.0312 1.6406 0.91406 1.0859 1.375 2.6562 1.375 4.7188z"/>
  </symbol>
  <symbol id="o" overflow="visible">
   <path d="m2.5781-20.406h5.875l7.4219 14v-14h4.9844v20.406h-5.875l-7.4219-14v14h-4.9844z"/>
  </symbol>
  <symbol id="n" overflow="visible">
   <path d="m2.1875-5.9688v-9.3438h4.9219v1.5312c0 0.83594-0.007813 1.875-0.015625 3.125-0.011719 1.25-0.015625 2.0859-0.015625 2.5 0 1.2422 0.03125 2.1328 0.09375 2.6719 0.070313 0.54297 0.17969 0.93359 0.32812 1.1719 0.20703 0.32422 0.47266 0.57422 0.79688 0.75 0.32031 0.16797 0.69141 0.25 1.1094 0.25 1.0195 0 1.8203-0.39062 2.4062-1.1719 0.58203-0.78125 0.875-1.8672 0.875-3.2656v-7.5625h4.8906v15.312h-4.8906v-2.2188c-0.74219 0.89844-1.5234 1.5586-2.3438 1.9844-0.82422 0.41406-1.7344 0.625-2.7344 0.625-1.7617 0-3.1055-0.53906-4.0312-1.625-0.92969-1.082-1.3906-2.6602-1.3906-4.7344z"/>
  </symbol>
  <symbol id="m" overflow="visible">
   <path d="m17.75-9.3281v9.3281h-4.9219v-7.1406c0-1.3203-0.03125-2.2344-0.09375-2.7344s-0.16797-0.86719-0.3125-1.1094c-0.1875-0.3125-0.44922-0.55469-0.78125-0.73438-0.32422-0.17578-0.69531-0.26562-1.1094-0.26562-1.0234 0-1.8242 0.39844-2.4062 1.1875-0.58594 0.78125-0.875 1.8711-0.875 3.2656v7.5312h-4.8906v-15.312h4.8906v2.2344c0.73828-0.88281 1.5195-1.5391 2.3438-1.9688 0.83203-0.42578 1.75-0.64062 2.75-0.64062 1.7695 0 3.1133 0.54688 4.0312 1.6406 0.91406 1.0859 1.375 2.6562 1.375 4.7188z"/>
  </symbol>
  <symbol id="l" overflow="visible">
   <path d="m2.5781-20.406h8.7344c2.5938 0 4.582 0.57812 5.9688 1.7344 1.3945 1.1484 2.0938 2.7891 2.0938 4.9219 0 2.1367-0.69922 3.7812-2.0938 4.9375-1.3867 1.1562-3.375 1.7344-5.9688 1.7344h-3.4844v7.0781h-5.25zm5.25 3.8125v5.7031h2.9219c1.0195 0 1.8047-0.25 2.3594-0.75 0.5625-0.5 0.84375-1.2031 0.84375-2.1094 0-0.91406-0.28125-1.6172-0.84375-2.1094-0.55469-0.48828-1.3398-0.73438-2.3594-0.73438z"/>
  </symbol>
  <symbol id="k" overflow="visible">
   <path d="m2.3594-15.312h4.8906v15.031c0 2.0508-0.49609 3.6172-1.4844 4.7031-0.98047 1.082-2.4062 1.625-4.2812 1.625h-2.4219v-3.2188h0.85938c0.92578 0 1.5625-0.21094 1.9062-0.625 0.35156-0.41797 0.53125-1.2461 0.53125-2.4844zm0-5.9688h4.8906v4h-4.8906z"/>
  </symbol>
  <symbol id="j" overflow="visible">
   <path d="m14.719-14.828v3.9844c-0.65625-0.45703-1.3242-0.79688-2-1.0156-0.66797-0.21875-1.3594-0.32812-2.0781-0.32812-1.3672 0-2.4336 0.40234-3.2031 1.2031-0.76172 0.79297-1.1406 1.9062-1.1406 3.3438 0 1.4297 0.37891 2.543 1.1406 3.3438 0.76953 0.79297 1.8359 1.1875 3.2031 1.1875 0.75781 0 1.4844-0.10938 2.1719-0.32812 0.6875-0.22656 1.3203-0.56641 1.9062-1.0156v4c-0.76172 0.28125-1.5391 0.48828-2.3281 0.625-0.78125 0.14453-1.5742 0.21875-2.375 0.21875-2.7617 0-4.9219-0.70703-6.4844-2.125-1.5547-1.4141-2.3281-3.3828-2.3281-5.9062 0-2.5312 0.77344-4.5039 2.3281-5.9219 1.5625-1.4141 3.7227-2.125 6.4844-2.125 0.80078 0 1.5938 0.074219 2.375 0.21875 0.78125 0.13672 1.5547 0.35156 2.3281 0.64062z"/>
  </symbol>
 </defs>
 <g>
  <path fill="lightgray" d="m150.3 182.95-29.625-1.5664 7.7852-12.152s3.3047-5.207 8.2305-13.551v-0.003906c0.1875-9.7461 3.2773-19.215 8.8711-27.191 5.5977-7.9805 13.445-14.113 22.547-17.609 2.1094-0.76172 4.2617-1.418 6.4375-1.957-11.492-27.871-36.895-47.562-66.75-51.746-4.6406-0.83594-7.7227-5.2734-6.8906-9.9102 0.83594-4.6406 5.2734-7.7266 9.9141-6.8906 4.6914 0.85156 9.3281 1.9727 13.887 3.3594 19.629-4.7422 40.141-4.375 59.586 1.0664 23.887-2.0508 47.836 3.1641 68.711 14.953 44.016 7.3359 73.922 29.062 86.465 62.945v-0.003907c1.6211 4.3477-0.58203 9.1836-4.9297 10.809-0.95312 0.33203-1.957 0.5-2.9688 0.50391-3.5273-0.035156-6.6602-2.2695-7.8398-5.6016-7.3789-19.309-22.328-34.762-41.383-42.781 5.0391 6.8828 8.832 14.598 11.199 22.789 1.2734 4.4062-1.2188 9.0156-5.5977 10.363-0.74609 0.21875-1.5195 0.33203-2.2969 0.33594-3.8477 0.19141-7.332-2.2539-8.457-5.9375-6.2734-22.398-28-40.152-54.602-47.879h0.003906c7.8633 6.9844 14.012 15.684 17.973 25.422 1.7305 4.3008-0.35156 9.1875-4.6445 10.922-1.0039 0.37891-2.0664 0.57031-3.1367 0.55859-3.4297 0.011719-6.5195-2.0742-7.7852-5.2617-10.473-25.984-41.832-39.199-71.961-39.535v-0.003906c17.727 12.023 31.207 29.324 38.527 49.449 12.91 0.30859 25.488 4.1172 36.398 11.023 10.91 6.9023 19.738 16.645 25.539 28.176 17.414 31.359 31.863 42.055 56 40.711v0.003907c21.309-30.125 48.531-55.59 80.004-74.844 31.473-19.258 66.539-31.898 103.06-37.156 28.617-4.3672 52.191-19.207 59.977-37.801 0.86328-2.0586 2.5078-3.6875 4.5703-4.5352 2.0625-0.84375 4.3789-0.83594 6.4336 0.027344 4.2852 1.793 6.3047 6.7188 4.5078 11.004-10.191 24.246-38.137 42.617-72.801 47.938l0.003906-0.003906c-34.934 4.9609-68.453 17.113-98.441 35.699-29.988 18.586-55.793 43.195-75.777 72.27l-2.1836 3.2461s-10.137 0.89453-13.105 0.89453c-32.312 0-50.398-19.879-66.754-49.504-14.281-25.648-39.871-36.344-65.238-27.215l0.003906 0.003906c-6.1875 2.4727-11.461 6.7969-15.098 12.379-3.6406 5.582-5.4648 12.152-5.2305 18.812v2.2383l-1.1211 2.0156c-0.83984 1.3438-1.5664 2.6328-2.2969 3.8633l5.6016 0.28125 1.9609 1.3438c0.83984 0.55859 22.398 14.559 38.641 1.0078h-0.003906c3.5898-2.9531 8.8906-2.4375 11.844 1.1484 2.957 3.5898 2.4414 8.8906-1.1445 11.844-22.684 18.594-48.945 5.7148-56.617 1.2344zm414.4-108.36c-4.4531-1.3477-9.1562 1.1523-10.527 5.5977-6.0312 19.203-18.238 35.875-34.727 47.422s-36.332 17.32-56.441 16.418c-4.6406-0.26172-8.6133 3.2852-8.875 7.9258-0.26562 4.6367 3.2852 8.6133 7.9219 8.875h6.6094c32.141 0.09375 62.523-14.664 82.32-39.984-1.5625 14.449-7.4141 28.105-16.801 39.199-17.707 20.809-44.188 32.055-71.457 30.352-4.6367-0.19922-8.5625 3.3984-8.7617 8.0391-0.20312 4.6367 3.3945 8.5625 8.0352 8.7617h5.6016c30.109 0.019531 58.738-13.086 78.398-35.895-3.5117 14.254-10.715 27.328-20.887 37.91-16.516 16.355-39.328 24.715-62.496 22.906-4.6406-0.26562-8.6133 3.2852-8.8789 7.9219-0.26172 4.6406 3.2852 8.6133 7.9258 8.8789h6.2148c25.914 0.43359 50.895-9.6719 69.219-28 20.887-21.223 31.078-51.465 28.617-85.176l-0.003906-0.003906c-0.003907-0.58594-0.10156-1.1719-0.27734-1.7344 3.0742-12.727 3.3203-25.973 0.72656-38.809 1.4648-3.3398 2.7344-6.7617 3.8086-10.246 1.2773-4.3867-1.1875-8.9883-5.543-10.359zm-0.83984 308.56c-39.199 12.152-75.656 6.2734-111.16-17.863-1.8398-1.2578-4.1055-1.7266-6.2969-1.3125-2.1875 0.41406-4.125 1.6836-5.3789 3.5234-2.6133 3.8359-1.6211 9.0625 2.2109 11.676 23.898 17.078 52.449 26.438 81.816 26.824 14.711-0.10156 29.32-2.4023 43.344-6.832 2.2422-0.5625 4.1523-2.0195 5.2812-4.0352 1.1328-2.0117 1.3867-4.4023 0.69922-6.6094-0.6875-2.2031-2.25-4.0312-4.3242-5.0469-2.0742-1.0156-4.4766-1.1328-6.6406-0.32422zm-38.473 48.047c-26.426 3.2617-53.082-3.9531-74.254-20.102-1.7695-1.4453-4.0469-2.1055-6.3086-1.832-2.2656 0.26953-4.3203 1.4492-5.6992 3.2656-1.375 1.8203-1.9531 4.1211-1.6016 6.3711 0.35156 2.2539 1.6055 4.2656 3.4727 5.5781 20.715 15.664 45.934 24.227 71.902 24.414 4.9805 0.066407 9.9609-0.23438 14.898-0.89453 4.6367-0.66406 7.8594-4.9648 7.1953-9.6055-0.66406-4.6367-4.9648-7.8594-9.6055-7.1953zm-48.945 34.16h0.003907c-8.4922-2.9102-16.734-6.5039-24.641-10.75-4.0508-2.2734-9.1797-0.83203-11.453 3.2188-2.2734 4.0508-0.83203 9.1797 3.2188 11.453 8.8398 4.75 18.055 8.7578 27.555 11.984 0.85938 0.30859 1.7695 0.46094 2.6875 0.44531 4.0938-0.035157 7.5664-3.0195 8.2188-7.0625 0.65234-4.0469-1.7109-7.9688-5.5859-9.2891zm122.14-132.77c-0.73828-2.1016-2.2812-3.8203-4.2891-4.7773-2.0078-0.95703-4.3164-1.0742-6.4102-0.32031-21.113 7.5039-44.801 16.016-92.062 7.6172-31.324-5.75-59.848-21.746-81.09-45.473 34.273 8.5664 70.582 0.88281 98.449-20.832 3.6172-2.9062 4.1953-8.1992 1.2891-11.816s-8.1992-4.1953-11.816-1.2891c-28.895 23.352-71.062 26.992-107.46 9.2969l-23.352-11.199 12.266 22.902c23.793 39.484 63.438 66.809 108.8 74.984 12.934 2.3867 26.051 3.625 39.203 3.6953 21.105-0.10547 42.004-4.1914 61.598-12.039 4.293-1.6484 6.4648-6.4375 4.875-10.75zm-304.59 22.848 14.449-10.922-17.641-3.9766c-14.391-3.2461-49.559-14.672-65.574-50.008h-0.003906c-6.25-14.777-9.0117-30.797-8.0625-46.816 0.84766-13.195-1.1797-26.414-5.9375-38.75-0.91406-2.0547-2.6133-3.6562-4.7148-4.4531-2.1016-0.80078-4.4336-0.73047-6.4844 0.19531-2.0625 0.90625-3.6758 2.6016-4.4766 4.707-0.80078 2.1094-0.71875 4.4453 0.22266 6.4922 3.7461 10.223 5.2734 21.121 4.4805 31.977-0.89062 18.375 2.4414 36.707 9.7422 53.594 12.707 26.438 35.766 46.457 63.727 55.328-5.7656 8.3008-7.9453 18.574-6.0469 28.504 0.88672 3.8008 4.2734 6.4922 8.1758 6.4961 0.63281 0.082031 1.2734 0.082031 1.9062 0 2.1719-0.49219 4.0625-1.8359 5.2383-3.7305 1.1797-1.8945 1.5508-4.1797 1.0312-6.3516-0.47656-4.2656 0.19922-8.582 1.9492-12.5 1.7539-3.918 4.5234-7.2969 8.0195-9.7852zm33.602 9.6875c4.1914-1.7812 6.2031-6.5781 4.5312-10.816-1.668-4.2383-6.4141-6.3711-10.691-4.8086-15.902 6.2734-23.352 23.184-18.199 41.105h-0.003907c1.0625 3.5703 4.3398 6.0273 8.0664 6.0469 0.79687 0 1.5859-0.11328 2.3516-0.33594 4.4102-1.3477 6.9062-5.9961 5.6016-10.418-2.5234-9.5742 0.67188-17.695 8.3438-20.773zm66.078-1.1211h-28.559c-4.6406 0-8.4023 3.7617-8.4023 8.3984 0 4.6406 3.7617 8.4023 8.4023 8.4023h28.559c3.918 0.015625 7.668 1.5781 10.438 4.3438 2.7695 2.7695 4.332 6.5234 4.3477 10.441v101.53c-0.015625 3.9102-1.5781 7.6562-4.3516 10.418-2.7695 2.7578-6.5234 4.3086-10.434 4.3086h-158.03c-4.6406 0-8.4023 3.7617-8.4023 8.3984 0 4.6406 3.7617 8.4023 8.4023 8.4023h158.03c8.3672 0 16.391-3.3203 22.312-9.2305 5.9219-5.9141 9.2578-13.93 9.2734-22.297v-101.3c0.042969-8.4102-3.2617-16.492-9.1875-22.461-5.9297-5.9688-13.988-9.332-22.398-9.3477zm-101.75 90.273c2.0234 0.74609 4.2461 0.74609 6.2695 0l83.609-33.602c4.3125-1.7148 6.418-6.6055 4.7031-10.918-1.7148-4.3164-6.6055-6.4219-10.918-4.707l-80.531 32.367-112.78-45.414c0.78906-3.1719 2.6094-5.9883 5.1719-8.0156 2.5664-2.0273 5.7266-3.1445 8.9961-3.1836h34.16c4.6367 0 8.3984-3.7617 8.3984-8.4023 0-4.6367-3.7617-8.3984-8.3984-8.3984h-34.16c-8.3594 0.089844-16.34 3.4844-22.195 9.4492-5.8594 5.9609-9.1133 14-9.0547 22.359v78.121c0 4.6367 3.7617 8.3984 8.4023 8.3984 4.6367 0 8.3984-3.7617 8.3984-8.3984v-64.066z"/>
 </g>
</svg>
