<?xml version="1.0" encoding="utf-8"?>
<svg viewBox="0 0 500 500" width="500" height="500" xmlns="http://www.w3.org/2000/svg">
  <path d="M 329.89 262.459 C 328.949 262.327 328.096 262.039 327.336 261.606 C 326.577 261.169 325.851 260.491 325.157 259.574 L 293.809 217.976 C 292.565 216.32 292.123 214.491 292.489 212.493 C 292.853 210.487 293.861 208.868 295.511 207.619 C 297.164 206.372 298.998 205.892 301.01 206.175 C 303.026 206.457 304.653 207.424 305.898 209.08 L 326.209 236.321 L 337.784 153.952 C 338.074 151.903 339.015 150.275 340.606 149.084 C 342.197 147.892 344.028 147.44 346.091 147.727 C 348.16 148.02 349.779 148.957 350.952 150.539 C 352.125 152.117 352.567 153.939 352.279 155.989 L 340.702 238.358 L 367.975 217.805 C 369.629 216.556 371.464 216.075 373.477 216.359 C 375.488 216.642 377.118 217.61 378.362 219.264 C 379.607 220.919 380.092 222.748 379.808 224.765 C 379.527 226.774 378.555 228.406 376.904 229.653 L 335.304 261 C 334.384 261.69 333.49 262.141 332.617 262.348 C 331.747 262.552 330.838 262.591 329.89 262.459 Z M 279.185 295.975 L 279.258 281.203 L 389.165 296.65 L 393 269.355 C 393.29 267.301 394.232 265.679 395.823 264.485 C 397.414 263.292 399.243 262.844 401.31 263.134 C 403.374 263.424 404.991 264.357 406.167 265.939 C 407.342 267.521 407.786 269.337 407.495 271.391 L 403.66 298.687 C 403.117 302.552 401.191 305.73 397.885 308.223 C 394.578 310.712 390.994 311.688 387.128 311.145 L 279.185 295.975 Z M 281.985 404.042 L 289.654 334.586 L 282.591 203.628 L 196.309 152.963 L 211.503 44.846 C 212.544 37.442 216.2 31.349 222.477 26.565 C 228.754 21.784 235.554 19.908 242.881 20.936 L 396.73 42.558 C 400.528 43.093 404.041 44.374 407.266 46.4 C 410.493 48.428 413.153 50.848 415.248 53.657 L 487.135 150.139 C 489.233 152.952 490.8 156.203 491.836 159.9 C 492.873 163.593 493.122 167.359 492.581 171.2 L 460.316 400.785 C 459.275 408.191 455.617 414.284 449.34 419.065 C 443.066 423.849 436.265 425.723 428.938 424.695 L 281.985 404.042 Z M 380.39 142.217 L 390.537 70.01 L 238.976 48.707 L 223.609 158.062 L 290.894 203.236 L 298.894 331.737 L 284.031 376.008 L 432.843 396.923 L 464.978 168.266 L 392.174 158.034 C 388.28 157.487 385.206 155.697 382.949 152.667 C 380.689 149.634 379.836 146.152 380.39 142.217 Z" style="fill: rgb(100, 100, 100);"/>
  <path d="M 149.765 334.101 C 147.571 334.101 145.746 333.393 144.292 331.971 C 142.837 330.549 142.11 328.792 142.11 326.692 L 142.11 242.457 L 116.708 266.911 C 115.167 268.396 113.371 269.095 111.319 269.013 C 109.265 268.93 107.47 268.147 105.929 266.666 C 104.391 265.184 103.622 263.413 103.622 261.355 C 103.622 259.294 104.391 257.526 105.929 256.043 L 144.421 218.991 C 145.279 218.168 146.142 217.59 147.021 217.261 C 147.902 216.932 148.839 216.768 149.845 216.768 C 150.848 216.768 151.778 216.932 152.633 217.261 C 153.488 217.59 154.345 218.168 155.198 218.991 L 193.945 256.292 C 195.484 257.773 196.257 259.502 196.257 261.478 C 196.257 263.454 195.484 265.184 193.945 266.666 C 192.409 268.147 190.569 268.889 188.428 268.889 C 186.292 268.889 184.452 268.147 182.913 266.666 L 157.507 242.457 L 157.507 326.692 C 157.507 328.792 156.767 330.549 155.282 331.971 C 153.798 333.393 151.96 334.101 149.765 334.101 Z M 83.093 371.896 C 78.987 371.896 75.392 370.413 72.314 367.45 C 69.234 364.485 67.695 361.026 67.695 357.076 L 67.695 329.162 C 67.695 327.062 68.437 325.303 69.92 323.881 C 71.405 322.461 73.242 321.751 75.437 321.751 C 77.632 321.751 79.456 322.461 80.911 323.881 C 82.365 325.303 83.093 327.062 83.093 329.162 L 83.093 357.076 L 216.527 357.076 L 216.527 329.162 C 216.527 327.062 217.271 325.303 218.756 323.881 C 220.239 322.461 222.079 321.751 224.271 321.751 C 226.466 321.751 228.29 322.461 229.745 323.881 C 231.197 325.303 231.924 327.062 231.924 329.162 L 231.924 357.076 C 231.924 361.026 230.386 364.485 227.308 367.45 C 224.226 370.413 220.635 371.896 216.527 371.896 L 83.093 371.896 Z M 35.133 469.373 C 27.736 469.373 21.262 466.57 15.712 460.96 C 10.163 455.352 7.39 448.809 7.39 441.328 L 7.39 123.484 C 7.39 116.006 10.163 109.463 15.712 103.852 C 21.262 98.244 27.736 95.439 35.133 95.439 L 190.495 95.439 C 194.331 95.439 197.989 96.219 201.465 97.777 C 204.941 99.335 207.912 101.361 210.378 103.852 L 294.993 189.39 C 297.461 191.884 299.465 194.886 301.006 198.403 C 302.547 201.916 303.318 205.61 303.318 209.489 L 303.318 441.328 C 303.318 448.809 300.543 455.352 294.993 460.96 C 289.446 466.57 282.972 469.373 275.574 469.373 L 35.133 469.373 Z M 188.184 196.401 L 188.184 123.484 L 35.133 123.484 L 35.133 441.328 L 275.574 441.328 L 275.574 210.424 L 202.056 210.424 C 198.123 210.424 194.831 209.08 192.173 206.394 C 189.513 203.706 188.184 200.375 188.184 196.401 Z" style=""/>
</svg>