<?xml version="1.0" standalone="no"?>
<!DOCTYPE svg PUBLIC "-//W3C//DTD SVG 1.1//EN" "http://www.w3.org/Graphics/SVG/1.1/DTD/svg11.dtd" >
<svg xmlns="http://www.w3.org/2000/svg" xmlns:xlink="http://www.w3.org/1999/xlink" version="1.1" viewBox="-10 0 1010 1000">
   <path fill="#519aba"
d="M795 449l-124 -123l-99 -99q-8 -9 -21.5 -15t-24.5 -6q-24 0 -38 8l-173 87l-12 6l-92 192q-8 17 -8 29q0 30 21 51l219 219h249v-103h103v-246zM495 225q11 -7 31 -7q8 0 19 5.5t18 12.5l70 70h-2q-9 -1 -18 -1h-277zM679 785h-231l-116 -116q-11 -11 -14 -19.5
t-3 -29.5v-293l364 364v94z" />
</svg>
