<svg id="vector" xmlns="http://www.w3.org/2000/svg" width="24" height="24" viewBox="0 0 48 48"><path fill="#2B8B57" d="M24.607,4.043C24.347,4.034 24.081,4.054 23.814,4.107L8.617,7.146C6.523,7.566 5,9.423 5,11.559L5,36.441C5,38.576 6.523,40.435 8.617,40.854L23.814,43.893C25.759,44.281 27.557,42.891 27.875,41L37.5,41C40.52,41 43,38.52 43,35.5L43,13.5C43,10.48 40.52,8 37.5,8L28,8L28,7.539C28,5.634 26.43,4.109 24.607,4.043zM24.402,7.049C24.742,6.981 25,7.192 25,7.539L25,40.461C25,40.808 24.741,41.019 24.402,40.951A1.5,1.5 0,0 0,24.402 40.949L9.207,37.91A1.5,1.5 0,0 0,9.205 37.91C8.494,37.768 8,37.166 8,36.441L8,11.559C8,10.834 8.495,10.23 9.207,10.088L24.402,7.049zM28,11L37.5,11C38.898,11 40,12.102 40,13.5L40,35.5C40,36.898 38.898,38 37.5,38L28,38L28,11zM31.5,15A1.5,1.5 0,1 0,31.5 18L35.5,18A1.5,1.5 0,1 0,35.5 15L31.5,15zM12.998,17.158C12.709,17.15 12.414,17.226 12.152,17.393C11.454,17.838 11.249,18.764 11.693,19.463L14.682,24.158L11.693,28.854C11.249,29.553 11.454,30.479 12.152,30.924C12.402,31.082 12.681,31.158 12.957,31.158C13.452,31.158 13.939,30.914 14.225,30.465L16.459,26.953L18.693,30.463C18.98,30.912 19.466,31.158 19.961,31.158C20.237,31.158 20.514,31.084 20.764,30.924C21.462,30.479 21.669,29.551 21.225,28.852L18.238,24.158L21.225,19.465C21.669,18.766 21.462,17.838 20.764,17.393C20.067,16.949 19.139,17.154 18.693,17.854L16.459,21.363L14.225,17.852C13.946,17.414 13.479,17.171 12.998,17.158zM31.5,23A1.5,1.5 0,1 0,31.5 26L35.5,26A1.5,1.5 0,1 0,35.5 23L31.5,23zM31.5,31A1.5,1.5 0,1 0,31.5 34L35.5,34A1.5,1.5 0,1 0,35.5 31L31.5,31z" id="path_0"/></svg>