<?xml version="1.0" standalone="no"?>
<!DOCTYPE svg PUBLIC "-//W3C//DTD SVG 1.1//EN" "http://www.w3.org/Graphics/SVG/1.1/DTD/svg11.dtd" >
<svg xmlns="http://www.w3.org/2000/svg" xmlns:xlink="http://www.w3.org/1999/xlink" version="1.1" viewBox="-10 0 1141 1000">
   <path fill="#519aba"
d="M90 458q-3 0 -2 -2l10 -12q1 -2 5 -2h158q3 0 2 2l-8 12q-2 3 -4 3zM23 499q-3 0 -2 -2l10 -12q1 -2 5 -2h202q3 0 2 2l-3 11q-1 3 -4 3h-210zM130 540q-3 0 -1 -3l6 -11q2 -2 5 -2h88q3 0 3 3l-1 10q0 3 -3 3h-97zM592 450q-16 4 -42 11l-34 9q-4 1 -6 0.5t-6 -5.5
q-11 -12 -21 -17q-40 -19 -80 7q-46 30 -46 85q1 26 17.5 46t42.5 23q45 6 76 -29l12 -16h-86q-7 0 -9 -4t1 -10q12 -28 22 -48q4 -7 11 -7h162v12q-1 16 -2 24q-8 49 -37 87q-49 65 -127 75q-68 9 -119 -29q-49 -37 -57 -99q-8 -70 38 -130q48 -63 125 -77q67 -12 117 22
q35 23 52 63q4 5 -4 7zM739 696q-65 -1 -109 -39q-40 -35 -48 -86q-11 -72 36 -134q24 -32 54 -49.5t71 -24.5q74 -13 127.5 23t61.5 98q11 88 -51 151q-43 44 -107 57q-8 1 -23 3zM844 516v-4q0 -7 -1 -10q-6 -33 -32.5 -50t-58.5 -9q-63 14 -77 77q-6 26 5.5 49.5
t35.5 34.5q36 16 72 -3q53 -27 56 -85z" />
</svg>
