<?xml version="1.0" standalone="no"?>
<!DOCTYPE svg PUBLIC "-//W3C//DTD SVG 1.1//EN" "http://www.w3.org/Graphics/SVG/1.1/DTD/svg11.dtd" >
<svg xmlns="http://www.w3.org/2000/svg" xmlns:xlink="http://www.w3.org/1999/xlink" version="1.1" viewBox="-10 0 1010 1000">
   <path fill="#519aba"
d="M633 485l-37 -19v0q0 -9 7 -16t15.5 -7t14.5 4.5t8.5 11.5t0 14t-8.5 12zM828 268q-22 -23 -52 -31t-60 -1t-54 29q-3 3 -3 8t3 8l15 15q3 3 7.5 3.5t7.5 -2.5q18 -13 41 -13q28 0 48.5 20t20.5 48.5t-19.5 47.5t-42.5 22q-20 1 -47 -9q-17 -7 -55 -26q-60 -30 -95 -42
q-60 -21 -120 -18q-72 3 -150 40q-15 7 -20.5 23.5t3.5 30.5l49 86q8 14 23.5 18t29.5 -4h1h-1l22 -12l23 -15q26 -18 46 -36q3 -3 7.5 -3.5t8.5 2.5v0q4 3 4 8.5t-4 8.5q-34 31 -73 55l-22 13q-23 12 -47.5 5.5t-37.5 -28.5l-46 -81q-71 50 -102 136q-34 92 -13 204
q1 4 4 6.5t7 2.5h53q5 0 8 -3t4 -7q3 -29 25 -48.5t51.5 -19.5t51.5 19.5t26 48.5q0 4 3.5 7t7.5 3h52q4 0 7 -3t4 -7q4 -29 26 -48.5t51 -19.5t51 19.5t26 48.5q1 4 4 7t7 3h51q5 0 8.5 -3.5t3.5 -7.5q1 -61 17 -110q20 -58 59 -87q87 -66 120 -135q26 -55 14 -108
q-10 -40 -38 -68z" />
</svg>
