<?xml version="1.0" standalone="no"?>
<!DOCTYPE svg PUBLIC "-//W3C//DTD SVG 1.1//EN" "http://www.w3.org/Graphics/SVG/1.1/DTD/svg11.dtd" >
<svg xmlns="http://www.w3.org/2000/svg" xmlns:xlink="http://www.w3.org/1999/xlink" version="1.1" viewBox="-10 0 1010 1000">
   <path fill="#cbcb41"
d="M234 472q32 0 45 -15q9 -11 9 -32q0 -9 -2 -26.5t-2 -27t-1 -28.5q-2 -17 -2 -24q0 -48 28 -71t79 -23h25v59h-13q-22 0 -31.5 12.5t-9.5 37.5q0 6 2 18q2 15 2 23q0 6 1 19q2 18 2 28q0 38 -16 57q-14 17 -44 24q30 8 44 24q16 20 16 57q0 11 -2 29q-2 13 -1.5 19
t-1.5 21q-2 11 -2 16q0 25 9.5 37.5t31.5 12.5h13v59h-25q-104 0 -104 -94q0 -34 3.5 -52.5t3.5 -53.5q0 -47 -53 -47zM766 525q-53 0 -53 47q0 9 1.5 26.5t1.5 26.5q3 19 3 53q0 94 -106 94h-25v-53h12q22 0 31.5 -12.5t9.5 -37.5t-3 -38q0 -8 -2 -23.5t-2 -23.5
q0 -37 16 -57q14 -16 44 -24q-30 -7 -44 -24q-16 -19 -16 -57q0 -10 2 -28q2 -13 2 -19q3 -16 3 -40t-10 -36t-31 -15h-12v-59h25q50 0 78 23t28 71q0 9 -1.5 26.5t-1.5 26.5q-3 19 -4 53q1 21 9 32q13 15 45 15v53z" />
</svg>
