<?xml version="1.0" standalone="no"?>
<!DOCTYPE svg PUBLIC "-//W3C//DTD SVG 1.1//EN" "http://www.w3.org/Graphics/SVG/1.1/DTD/svg11.dtd" >
<svg xmlns="http://www.w3.org/2000/svg" xmlns:xlink="http://www.w3.org/1999/xlink" version="1.1" viewBox="-10 0 1010 1000">
   <path fill="#519aba"
d="M459 812q-73 0 -135.5 -36.5t-99 -99t-36.5 -136.5t37 -137t99 -98q65 -38 142 -36q72 1 133 37.5t96 97.5q36 63 36 136.5t-36.5 136t-99 99t-136.5 36.5zM572 347q-33 0 -57 24t-24 57t23 57t57 24t58 -23t24 -57t-23.5 -58t-57.5 -24zM731 347q-33 0 -56.5 -23.5
t-21.5 -57.5q0 -33 23 -56t58 -23q33 0 56 24.5t23 57t-24.5 55.5t-57.5 23z" />
</svg>
