<?xml version="1.0" standalone="no"?>
<!DOCTYPE svg PUBLIC "-//W3C//DTD SVG 1.1//EN" "http://www.w3.org/Graphics/SVG/1.1/DTD/svg11.dtd" >
<svg xmlns="http://www.w3.org/2000/svg" xmlns:xlink="http://www.w3.org/1999/xlink" version="1.1" viewBox="-10 0 1010 1000">
   <path fill="#519aba"
d="M419 812h-47q1 -4 2.5 -13.5t3.5 -11.5q17 -6 21 -20q3 -8 2 -28l-1 -14v-194q-11 -2 -34 -4l-27 -3q-14 -3 -23 -8q-51 -33 -65.5 -83.5t8.5 -107.5q16 -36 -22 -41q-6 0 -25 -6v-6q10 -5 27 -16t27 -15q2 -2 9 -2q12 -1 16 -5q26 -13 39 -15t23 7.5t25 35.5
q11 23 10 45t-13 46q-10 17 -11 26q-2 15 14 21l20 -28q36 -52 56 -76q32 -40 65 -64q39 -30 84 -45h22q6 9 21 25q22 23 29 38q16 26 44 80q31 60 50 89q12 18 15.5 46t-3.5 53.5t-22 37.5v-109h-12q-14 20 -16 47q-2 16 1 50q2 25 2 37q0 40 -1 118q-2 76 -2 113h-22v-8
q-2 -10 0 -17q19 -143 -34 -287q-39 35 -44 94q-2 19 -8 42q-4 14 -14 42q-2 6 -8 17q-9 18 -10 27q-1 15 15 28q2 2 -0.5 14.5t-2.5 19.5l-12 -15q-9 -12 -13 -16v10q-11 3 -34.5 7.5t-34.5 7.5q0 -1 -1.5 -6t-1.5 -6q13 -7 19 -13q23 -14 25.5 -28.5t-16.5 -30.5
q-61 -48 -34 -116q4 -8 5 -28q0 -15 1 -25l-18 10q-13 6 -17 9q-7 5 -8 9q-12 44 -24 136l-1 8q-7 28 -13 76zM563 694q32 -42 37 -86t-19 -77q-37 75 -56 116z" />
</svg>
