<?xml version="1.0" standalone="no"?>
<!DOCTYPE svg PUBLIC "-//W3C//DTD SVG 1.1//EN" "http://www.w3.org/Graphics/SVG/1.1/DTD/svg11.dtd" >
<svg xmlns="http://www.w3.org/2000/svg" xmlns:xlink="http://www.w3.org/1999/xlink" version="1.1" viewBox="-10 0 1010 1000">
   <path fill="#a074c4"
d="M397 616q-5 -32 -31 -41l-22 -13q-19 -6 -25 -9q-9 -4 -19 6q-4 9 3 16q3 6 13 16q6 9 22 25l2 3q5 7 6 11q3 6 1 14q-5 36 -28 59q-2 2 -5 3h-1q-7 0 -15.5 -3.5t-13.5 -8.5q-6 -7 -5 -13.5t9 -11.5q2 0 4 -2t2 -5q10 -10 6 -21q-2 -2 -3.5 -5l-2.5 -5q-13 -12 -44 -37
q-58 -45 -62 -113q-5 -72 34 -140q17 -29 41 -41q12 -6 37 -13q63 -17 109 -9q53 11 66 53q10 36 6 63q-2 32 -24.5 58t-53.5 35q-14 5 -22 2.5t-15 -14.5l-5 -7q-12 -18 -17 -27v-4q0 -1 -1.5 -2.5t-1.5 -3.5q3 19 5 28q4 15 10 25q6 8 11.5 12t13.5 4q61 5 97 -41
q35 -48 25 -118q0 -8 -4 -20l-2 -5q0 -6 1 -8.5t5 -4.5q6 0 6 -3q54 -11 97 -6q62 5 103 34q72 45 97 134q3 10 3 25q0 5 -2 5.5t-6.5 -2t-10.5 -8.5l-2 -4q-2 -1 -5 -6t-5 -7t-4 -2t-2 2t-1.5 5t-1.5 5q-16 54 -44 81q-2 3 -4 6.5t-2 6.5l-1 12q-1 17 1 25l9 78
q2 11 -1.5 17t-14.5 11q-18 7 -31 7h-50q0 -19 -2 -27q-3 -14 -13 -20q6 -25 9.5 -41t-6.5 -31q-8 -12 -25 -6q-34 21 -78 6q-11 -3 -17.5 -1t-10.5 10q-10 19 -10 38t6 50q0 8 -1 10.5t-8 4.5q-30 9 -62 4h-4q0 -19 -2 -27q-5 -14 -19 -20q15 -16 9 -53zM269 544
q6 -7 6 -13q2 -7 -3 -16t-13 -12q-4 -2 -6.5 -1t-5.5 4q-5 5 -12.5 14.5t-12.5 13.5q0 2 -1.5 3.5t-1.5 3.5q-3 4 -1 8t7 4q9 0 13 3q18 0 31 -12zM269 441q0 -5 -4 -9t-9 -4t-9.5 4.5t-2.5 11.5q0 5 4.5 8.5t10.5 3.5q10 -9 10 -15z" />
</svg>
