<?xml version="1.0" standalone="no"?>
<!DOCTYPE svg PUBLIC "-//W3C//DTD SVG 1.1//EN" "http://www.w3.org/Graphics/SVG/1.1/DTD/svg11.dtd" >
<svg xmlns="http://www.w3.org/2000/svg" xmlns:xlink="http://www.w3.org/1999/xlink" version="1.1" viewBox="-10 0 1010 1000">
   <path fill="#519aba"
d="M488 484h-63q-33 0 -52.5 19.5t-19.5 52.5v56q0 10 -9 10h-28q-44 0 -63 -38q-15 -31 -15 -56q-6 -62 9 -103q16 -48 59 -56h181q10 0 10 -3v-16l-4 -2q-4 -1 -5 -1h-107q-7 0 -9.5 -3t-2.5 -10v-40q0 -35 28 -44q31 -13 47 -16q60 -10 112 3q26 6 44 19q11 11 15 20
q6 11 4 24v112q0 33 -18 51t-51 18q-22 3 -62 3zM400 297q0 10 7 17.5t17 7.5t18 -8t8 -17t-7.5 -16t-17.5 -9q-11 0 -18 7.5t-7 17.5zM513 516h62q33 0 52.5 -19.5t19.5 -52.5v-57q0 -9 9 -9h28q44 0 63 38q16 31 16 56q5 62 -10 103q-16 48 -59 56h-181q-10 0 -10 3v16
l4 2q4 1 6 1h106q7 0 9.5 3t2.5 10v40q0 35 -28 44q-31 12 -47 16q-60 10 -112 -4q-26 -5 -44 -18q-11 -11 -15 -20q-6 -11 -4 -24v-113q0 -32 18 -50t51 -18q22 -3 63 -3zM600 703q0 -10 -7 -17.5t-17 -7.5t-18 8t-8 17t7.5 16t17.5 9q11 0 18 -7.5t7 -17.5z" />
</svg>
