<?xml version="1.0" standalone="no"?>
<!DOCTYPE svg PUBLIC "-//W3C//DTD SVG 1.1//EN" "http://www.w3.org/Graphics/SVG/1.1/DTD/svg11.dtd" >
<svg xmlns="http://www.w3.org/2000/svg" xmlns:xlink="http://www.w3.org/1999/xlink" version="1.1" viewBox="-10 0 1010 1000">
   <path fill="#cc3e44"
d="M556 234h128q2 0 5 1.5t5 1.5q60 15 69 69q0 3 1.5 9.5t1.5 9.5v25q0 3 -1.5 9.5t-1.5 9.5l-11 150q-12 136 -14 206q-1 9 -4 12.5t-12 3.5q-17 1 -50 2.5t-50 3.5q-34 1 -103 6t-103 6q-19 0 -57 7h-31q-1 0 -4.5 -2t-4.5 -2q-29 -4 -48.5 -21t-26.5 -44
q-2 -5 -3.5 -14.5t-3.5 -13.5v-16q0 -1 2 -5t2 -7q0 -13 1.5 -39.5t1.5 -38.5q0 -29 3 -41q19 -49 37 -81q23 -42 53 -72q43 -46 86 -74q49 -32 102 -45q6 -4 19 -10z" />
</svg>
