<?xml version="1.0" standalone="no"?>
<!DOCTYPE svg PUBLIC "-//W3C//DTD SVG 1.1//EN" "http://www.w3.org/Graphics/SVG/1.1/DTD/svg11.dtd" >
<svg xmlns="http://www.w3.org/2000/svg" xmlns:xlink="http://www.w3.org/1999/xlink" version="1.1" viewBox="-10 0 1010 1000">
   <path fill="#6d8086"
d="M678 262v19l3 3h3q5 -1 14.5 -2.5t14 -3.5t8 1.5t1.5 8t-3.5 14t-2.5 14.5v3l3 3q0 3 6 3h28q10 0 9 9v7q-2 6 -8 18l-4 7v3l2 2q1 2 1 4h3q5 2 14.5 3.5t14 2t6.5 6t0 10.5l-8 11q-6 7 -8 11v6q0 2 3 4l3 2l25 10q5 2 6.5 6.5t-3.5 8.5q-12 13 -21 19v9l1 2q3 1 5 1l7 5
q9 6 14 8t5 7.5t-4 8.5l-25 15v3v6t3 4q12 12 19 15q4 5 2.5 9t-6.5 7q-18 6 -25 9l-1 1q-2 1 -3 3t1 6v3q5 4 11 15l5 7q2 2 1.5 6t-4.5 6l-3 1l-4 2q-4 0 -12 2t-12 2h-4q0 1 -1.5 2.5t-1.5 3.5l1 3l2 3l10 22q2 2 0.5 6t-3.5 6h-38q-3 4 -3 10q2 4 3.5 12t3.5 12.5
t-2 8.5t-11 4q-5 -1 -14.5 -2.5t-13.5 -3.5h-3l-5 5q-1 1 1 1v28q0 10 -9 10h-6q-13 -4 -25 -13h-3q-3 0 -5 2t-2 5q0 4 -1.5 12t-1.5 12.5t-5.5 6.5t-9.5 0q-10 -10 -22 -16h-3q-3 0 -5 2t-2 4l-9 25q-3 7 -9 7q-2 0 -3 -2l-1 -1q-12 -13 -18 -22h-7q-2 0 -4 2t-2 4l-12 22
q-3 4 -8.5 4t-7.5 -4l-16 -25h-9l-22 22q-3 3 -12 3q-3 0 -3 -6l-10 -30q-1 -2 -3 -2h-9q-5 5 -15 11l-7 5l-6 -3q-9 -4 -12.5 -6.5t-3.5 -6.5q-3 -9 -3 -28l-1 -1q0 -2 -2 -2t-3.5 -1.5t-2.5 -1.5h-4l-3 3l-22 9q-4 3 -8 1t-4 -7v-34l-3 -3h-3q-5 1 -14.5 2.5t-14 3.5
t-8 -1.5t-1.5 -8t3.5 -14t2.5 -14.5v-3l-3 -3h-31q-9 0 -9 -9v-7q2 -6 9 -18l3 -7v-4q-1 -2 -3 -2q0 -2 -2 -2l-1 -1q-5 0 -14.5 -1.5t-14 -1.5t-6.5 -5.5t1 -10.5q9 -9 15 -22v-6l-5 -4q-2 -2 -4 -2l-22 -9q-5 -3 -6.5 -7.5t3.5 -8.5q5 -2 15 -10q6 -6 10 -9v-6q0 -6 -3 -6
l-22 -13q-5 -2 -5 -7.5t5 -7.5l25 -16v-6l-22 -22q-2 -2 -2 -6t2 -7h1q2 -1 2 -3l28 -9v-3q2 -2 1 -7l-1 -3q-3 -3 -7.5 -9l-7.5 -10t-1 -9.5t6.5 -6.5t14 -2.5t14.5 -2.5h3q0 -2 1.5 -3.5t1.5 -3.5v-3l-3 -3l-9 -22q-3 -4 -1 -8t7 -4h34l1 -2q0 -1 2 -1v-3q-6 -19 -6 -28
q-2 -5 1.5 -8.5t8.5 -1.5q9 0 28 6h3l4 -4q1 -2 -1 -2v-28q0 -9 9 -9h7q6 2 18 9l7 3h4q2 -1 2 -3q2 0 2 -2l1 -1q0 -5 1.5 -14.5t1.5 -14t5.5 -6.5t10.5 0q9 10 22 16h6l3 -3v-2q1 -2 3 -4l9 -22q3 -4 5 -5t8 -1l3 3q2 5 10 15q6 6 9 10h3q2 0 4 -2l2 -1l13 -22
q4 -5 8.5 -5.5t6.5 2.5l3 3l16 25h9q2 0 3 -2l1 -1q12 -13 15 -19q2 -2 6 -2t7 2v3q6 19 9 25l3 3h6q14 -5 25 -16q5 -2 10.5 0t5.5 6.5t1.5 14t1.5 14.5l1 1q0 2 2 2h3q3 2 5 2t2 -2q6 -3 25 -9q5 -3 8.5 -0.5t3.5 9.5v12zM331 347h238q19 0 28 3q30 10 44 28q15 16 15 38
q0 18 -9 37q-10 15 -25 25q-6 6 -10 6q2 2 5 3.5t5 3.5l5 4q11 10 14 17q9 15 9 32q0 3 6 9q4 4 12 6h13.5t15.5 -6q4 -4 7 -12l2 -7v-15q0 -3 0.5 -3h2.5h22v-41q-4 -2 -13.5 -6.5t-14.5 -6.5q-1 -1 -6 -2.5t-6 -3.5q-15 -5 -10 -25q13 -31 22 -47v-3q-12 -19 -19 -27
q-12 -15 -25 -26q-46 -42 -112 -56h-3q-19 19 -31 28q-5 5 -13 5t-13 -5l-28 -28h-3q-12 3 -31 9q-49 18 -88 56q-6 7 -6 10zM684 634h-93q-10 0 -13 -3q-16 -8 -22 -31l-1 -6q-5 -18 -5 -28q0 -7 -5.5 -19t-14.5 -18.5t-21 -6.5h-56v40h56q3 0 3.5 0.5t0.5 3.5v62
q0 2 -0.5 2.5t-3.5 0.5h-187q6 10 19 22h3q25 -6 37 -6q7 -2 13.5 1.5t8.5 10.5l10 41v3q25 10 37 13q21 6 37 6q15 2 33 1q11 -1 33 -4q16 -3 47 -16v-3l9 -41q6 -16 22 -12l38 9h3q0 -9 12 -22zM313 416l9 18l1 3q1 5 -1 7q0 5 -7 10l-2 2q-25 13 -38 16h-2q-1 1 -1 3v16
q0 31 9 68l1 2q0 2 2 2h66v-147h-37zM447 459h2h-2h72q12 0 19 -3l3 -2q4 -3 6 -7.5t1.5 -11t-4.5 -10.5q-10 -9 -22 -9h-78q3 15 3 43zM259 428q0 7 6 13t13 6t13 -6t6 -13t-6 -13t-13 -6t-13 6t-6 13zM656 691q0 -7 -5.5 -13t-13 -6t-13 6t-5.5 13t5.5 12.5t13 5.5t13 -5
t5.5 -13zM363 672q-8 0 -13.5 6t-5.5 13t5.5 12.5t13 5.5t13 -5.5t5.5 -12.5t-5.5 -13t-12.5 -6zM519 262q0 -7 -5 -12.5t-13.5 -5.5t-14 5t-5.5 13t5 13.5t14 5.5q13 0 19 -19zM722 450q7 0 13 -6t6 -13t-6 -13t-13 -6t-13 6t-6 13.5t5 13t14 5.5z" />
</svg>
