<?xml version="1.0" standalone="no"?>
<!DOCTYPE svg PUBLIC "-//W3C//DTD SVG 1.1//EN" "http://www.w3.org/Graphics/SVG/1.1/DTD/svg11.dtd" >
<svg xmlns="http://www.w3.org/2000/svg" xmlns:xlink="http://www.w3.org/1999/xlink" version="1.1" viewBox="-10 0 1010 1000">
   <path fill="#e37933"
d="M300 344q0 -2 -1.5 -3.5t-1.5 -3.5q-3 -4 -11 -13.5t-11 -14.5q-12 -11 -16 -17q-8 -9 -12 -17q12 13 31 25q3 2 8 6.5t8 5.5q6 5 17 14.5t17 14.5q9 8 29 23l12 8q31 25 47 34q12 10 37 27t38 26v-3q-38 -43 -60 -65q-25 -32 -37 -44l-31 -41q0 -1 -2 -2.5t-2 -3.5
l-28 -38l-4 -7q-6 -8 -8 -14q8 6 22 20t21.5 21t25 22.5t24.5 23.5q7 5 19.5 16t18.5 15l38 28q4 4 12 10l12 9q69 50 107 75q2 3 4 2.5t2 -5.5q16 -39 16 -97q0 -42 -16 -84q0 -6 -6 -25l-5 -10q-10 -21 -17 -31q-4 -16 -22 -34q0 -2 -1.5 -3.5t-1.5 -2.5q12 6 31 18
q67 50 116 122l7 15q16 30 21 45q22 54 22 100v3q0 28 -3 40q-2 7 -3.5 19.5t-2.5 18.5t2 9q38 47 47 103q3 10 3 32q0 15 -3 25v2.5t-2.5 0.5t-2.5 -2l-1 -1q-21 -43 -59 -47q-18 -5 -36 -1q-14 2 -33 10q-7 3 -19 9q-15 8 -22 10q-66 28 -137 19q-52 -6 -94 -22h-3
q-9 -5 -28 -13t-28 -12q-91 -50 -153 -141l-4 -3h4l3 3q18 13 31 19l12 7q17 10 25 12q23 13 54 18q1 2 2.5 2t3.5 2q42 12 100 12q64 -5 112 -31q5 -3 5 -3.5t-5 -2.5q-14 -11 -42 -36l-20 -18q-8 -6 -22 -20t-22 -20q-12 -10 -31 -35q-3 -4 -11 -12t-11 -13
q-6 -6 -18.5 -20t-18 -20.5t-15 -17t-14.5 -17.5q0 -6 -9 -15z" />
</svg>
