<svg id="vector" xmlns="http://www.w3.org/2000/svg" width="24" height="24" viewBox="0 0 48 48"><path fill="#326BC3" d="M24.607,4.043C24.347,4.034 24.081,4.054 23.814,4.107L8.617,7.146C6.523,7.566 5,9.423 5,11.559L5,36.441C5,38.576 6.523,40.435 8.617,40.854L23.814,43.893C25.759,44.281 27.557,42.891 27.875,41L37.5,41C40.52,41 43,38.52 43,35.5L43,13.5C43,10.48 40.52,8 37.5,8L28,8L28,7.539C28,5.634 26.43,4.109 24.607,4.043zM24.402,7.049C24.742,6.981 25,7.192 25,7.539L25,40.461C25,40.808 24.741,41.019 24.402,40.951A1.5,1.5 0,0 0,24.402 40.949L9.207,37.91A1.5,1.5 0,0 0,9.205 37.91C8.494,37.768 8,37.166 8,36.441L8,11.559C8,10.834 8.495,10.23 9.207,10.088L24.402,7.049zM28,11L37.5,11C38.898,11 40,12.102 40,13.5L40,35.5C40,36.898 38.898,38 37.5,38L28,38L28,34L35.5,34A1.5,1.5 0,1 0,35.5 31L28,31L28,26L35.5,26A1.5,1.5 0,1 0,35.5 23L28,23L28,18L35.5,18A1.5,1.5 0,1 0,35.5 15L28,15L28,11zM11.525,16.979A1.5,1.5 0,0 0,10.02 18.746L12.02,30.746A1.5,1.5 0,0 0,14.904 31.027L16.5,26.771L18.096,31.027A1.5,1.5 0,0 0,20.98 30.746L22.98,18.746A1.501,1.501 0,1 0,20.02 18.254L18.939,24.734L17.904,21.973A1.5,1.5 0,0 0,15.096 21.973L14.061,24.734L12.98,18.254A1.5,1.5 0,0 0,11.525 16.979z" id="path_0"/></svg>